<svg width="240" height="118" viewBox="0 0 240 118" fill="none" xmlns="http://www.w3.org/2000/svg">
<g clip-path="url(#clip0_45_5)">
<path d="M197.888 24L198.422 53.9354H192.782L192.69 24.4903L192.638 19.7677L183.663 19.7161L175.457 19.7677L175.405 24L175.627 34.9677H170.052L170.273 24.4903L170.052 0.116089H175.692L175.522 15.0967L184.106 15.2L192.586 15.0967L192.417 0.116089H198.161L197.888 24Z" fill="#1D1D1B"/>
<path d="M33.5544 0.593594L33.1115 4.70972L25.6217 4.54198H20.3202L20.0988 23.9484L20.3202 34.8904H14.6801L14.9015 24.4259L14.6801 0.103271H33.1767L33.5544 0.593594Z" fill="#1D1D1B"/>
<path d="M57.079 23.9484L57.2353 34.8903H51.5951L51.8686 24.4258L51.6472 4.3742H43.5452L43.2716 7.13549C42.6203 14.2194 41.8518 19.7032 41.0051 23.6129C40.1585 27.5226 39.0773 30.3742 37.7747 32.1807C36.4852 33.9871 34.7918 35.1097 32.7207 35.5355L31.1316 35.6387L30.0895 31.1355C31.835 30.5548 33.2157 29.471 34.2187 27.8839C35.2217 26.2968 36.0423 23.8323 36.6806 20.5161C37.3188 17.1871 37.905 12.4 38.4651 6.15485L39.0643 0.193558L39.0122 0.090332H57.3395L57.0659 23.9355L57.079 23.9484Z" fill="#1D1D1B"/>
<path d="M93.2385 0.167702L83.0654 24.1806C81.6846 27.2129 80.4081 29.4709 79.2618 30.9548C78.1156 32.4387 76.7609 33.4967 75.2108 34.129C73.6608 34.7613 71.5376 35.1613 68.8412 35.3419L68.3462 35.2903C67.9424 34.0258 67.6168 32.5806 67.3563 30.9548L67.6298 30.4129C70.4434 30.0903 72.5015 29.6645 73.8171 29.1354C75.1327 28.6064 76.2008 27.7548 77.0475 26.5677L63.696 0.167702L69.7661 0.116089L71.0296 3.53544L79.1837 20.6064H79.7829L86.6214 3.26448L87.6635 0.180605H93.2385V0.167702Z" fill="#1D1D1B"/>
<path d="M120.515 16.8258C122.351 18.4 123.276 20.6709 123.276 23.6258C123.276 27.2387 121.999 30.0258 119.446 31.9742C116.893 33.9225 113.285 34.9032 108.609 34.9032H99.3085L99.5821 24.5032L99.3085 0.116089H121.635L121.96 0.606411L121.583 4.72254L112.933 4.5548H104.949L104.844 14.4774H112.452C115.982 14.4774 118.678 15.2645 120.515 16.8387V16.8258ZM115.669 28.9161C116.841 27.7806 117.414 26.258 117.414 24.3354C117.414 22.4129 116.841 20.9548 115.695 19.9483C114.549 18.9419 112.881 18.4258 110.693 18.4258L104.779 18.4774L104.727 24L104.831 30.7742L110.576 30.9935C112.803 30.7354 114.497 30.0516 115.669 28.9032V28.9161Z" fill="#1D1D1B"/>
<path d="M131.365 24.4387L131.091 0.270968L136.784 0L136.458 26.2323H136.901L153.366 0.103226H159.331L159.058 23.9484L159.279 34.8903H153.587L153.861 24.4258V8.77419H153.418L136.953 34.8903H131.104L131.378 24.4258L131.365 24.4387Z" fill="#1D1D1B"/>
<path d="M234.881 34.9033H229.084L228.264 31.0065L226.727 26.1807L219.289 26.013L212.555 26.1807L210.913 30.7355L210.041 34.9033H204.401L216.931 0.103271H223.548L234.868 34.8904L234.881 34.9033ZM225.307 21.6259L220.279 5.58714H219.901L214.157 21.6259L219.68 21.7291L225.32 21.6259H225.307Z" fill="#1D1D1B"/>
<path d="M115.942 87.8967C108.739 87.8967 101.536 85.8193 95.2445 81.6645C84.8629 74.8129 71.4464 74.8129 61.0648 81.6645L60.8955 81.7677C52.5199 86.5935 42.0081 88.4903 30.4803 87.2774C28.6958 87.0838 27.3932 85.4967 27.5886 83.729C27.784 81.9612 29.3861 80.6709 31.1707 80.8645C38.2176 81.6129 48.495 81.4064 57.5349 76.2451C70.1047 68 86.3088 68.0129 98.8526 76.2967C109.234 83.1483 122.651 83.1483 133.032 76.2967C140.717 71.2258 149.979 69.1483 159.123 70.4774C160.907 70.7354 162.132 72.3741 161.871 74.129C161.611 75.8967 159.957 77.1096 158.185 76.8516C150.63 75.7677 142.984 77.4709 136.64 81.6516C130.349 85.8064 123.146 87.8838 115.942 87.8838V87.8967Z" fill="#2D2E83"/>
<path d="M114.288 103.239C107.085 103.239 99.8817 101.161 93.5902 97.0064C88.5102 93.6516 82.6095 91.8838 76.5004 91.8838H76.4874C74.6898 91.8838 73.231 90.4387 73.231 88.658C73.231 86.8774 74.6377 85.4064 76.5004 85.4322C83.8991 85.4322 91.0502 87.5742 97.1984 91.6387C107.58 98.4903 120.996 98.4903 131.378 91.6387C139.063 86.5677 148.338 84.5032 157.469 85.8193C159.253 86.0774 160.478 87.7161 160.217 89.4709C159.957 91.2387 158.302 92.4516 156.531 92.1935C148.976 91.1096 141.33 92.8129 134.986 96.9935C128.695 101.148 121.491 103.226 114.288 103.226V103.239Z" fill="#2D2E83"/>
<path d="M116.62 72.5677C109.417 72.5677 102.213 70.4903 95.9219 66.3354C85.5403 59.4838 72.1238 59.4838 61.7422 66.3354L61.5729 66.4387C46.6714 75.0193 29.3992 72.3225 20.4244 69.9612C12.4787 67.8709 2.83962 63.729 0.429852 59.5999C-0.468927 58.0516 0.0651303 56.0903 1.62822 55.187C3.17829 54.2967 5.17124 54.8258 6.07002 56.3612C8.7403 60.387 37.7878 72.5935 58.2122 60.9032C70.7691 52.658 86.9731 52.6709 99.53 60.9548C109.912 67.8064 123.328 67.8064 133.71 60.9548C146.28 52.6451 162.536 52.6451 175.106 60.9548C185.487 67.8064 198.904 67.8064 209.285 60.9548C216.632 56.1032 225.515 53.987 234.282 54.9935C236.066 55.2 237.343 56.8 237.147 58.5677C236.939 60.3354 235.324 61.6 233.539 61.4064C226.297 60.5806 218.963 62.3225 212.906 66.3225C200.336 74.6322 184.08 74.6322 171.51 66.3225C161.129 59.4709 147.712 59.4709 137.331 66.3225C131.039 70.4774 123.836 72.5548 116.633 72.5548L116.62 72.5677Z" fill="#1E71B7"/>
<path d="M210.405 118C203.971 118 198.734 112.813 198.734 106.439C198.734 100.065 203.971 94.8774 210.405 94.8774C216.84 94.8774 222.077 100.065 222.077 106.439C222.077 112.813 216.84 118 210.405 118ZM210.405 101.342C207.566 101.342 205.247 103.626 205.247 106.452C205.247 109.277 207.553 111.561 210.405 111.561C213.258 111.561 215.564 109.277 215.564 106.452C215.564 103.626 213.258 101.342 210.405 101.342Z" fill="#2D2E83"/>
<path d="M181.501 108.426C171.927 108.426 164.151 100.71 164.151 91.2387C164.151 81.7678 171.94 74.0516 181.501 74.0516C191.062 74.0516 198.852 81.7678 198.852 91.2387C198.852 100.71 191.062 108.426 181.501 108.426ZM181.501 80.5032C175.522 80.5032 170.664 85.3162 170.664 91.2387C170.664 97.1613 175.522 101.974 181.501 101.974C187.48 101.974 192.339 97.1613 192.339 91.2387C192.339 85.3162 187.48 80.5032 181.501 80.5032Z" fill="#2D2E83"/>
<path d="M194.501 57.1742C187.298 57.1742 180.094 55.0967 173.803 50.9419C163.421 44.0903 150.005 44.0903 139.623 50.9419L139.454 51.0451C124.553 59.6258 107.28 56.929 98.3056 54.5677C90.3598 52.4774 80.7208 48.3354 78.311 44.2064C77.4122 42.658 77.9463 40.6967 79.5094 39.7935C81.0594 38.9032 83.0524 39.4322 83.9511 40.9677C86.6214 44.9935 115.669 57.2 136.093 45.5096C148.65 37.2645 164.854 37.2774 177.411 45.5613C187.793 52.4129 201.209 52.4129 211.591 45.5613C219.12 40.5935 228.199 38.5032 237.173 39.6645C238.958 39.8967 240.208 41.5225 239.974 43.2774C239.739 45.0451 238.111 46.2838 236.327 46.0516C228.928 45.0838 221.425 46.8129 215.212 50.9161C208.999 55.0193 201.717 57.1484 194.514 57.1484L194.501 57.1742Z" fill="#04A29A"/>
</g>
<defs>
<clipPath id="clip0_45_5">
<rect width="240" height="118" fill="white"/>
</clipPath>
</defs>
</svg>
