<svg width="275" height="109" viewBox="0 0 275 109" fill="none" xmlns="http://www.w3.org/2000/svg">
<g clip-path="url(#clip0_45_21)">
<path d="M27.2522 100.881C27.2522 101.518 26.99 102.102 26.5704 102.528C26.1443 102.942 25.5674 103.211 24.9249 103.211H8.31922C8.19466 103.211 8.07666 103.198 7.9521 103.178C7.92588 103.191 7.8931 103.191 7.87343 103.191C7.08019 103.191 6.30661 102.778 5.88049 102.036L0.308115 92.3681C-0.327791 91.272 0.0458857 89.8542 1.14725 89.2241C2.24861 88.5875 3.6581 88.9682 4.28745 90.0643L6.07061 93.1622V87.3995C6.07061 86.1196 7.10641 85.0957 8.37167 85.0957C9.63693 85.0957 10.6727 86.1196 10.6727 87.3995V98.5509H24.9249C26.2033 98.5509 27.2522 99.5879 27.2522 100.881Z" fill="#EB6440"/>
<path d="M54.7863 16.6121C55.8352 17.5244 56.4908 18.87 56.4908 20.3796C56.4908 22.7752 54.7994 24.7902 52.5442 25.2891C50.5447 21.1672 50.7479 14.5643 47.3062 11.3613C44.2447 8.0205 39.0197 7.02941 34.6864 8.40118C33.8931 7.51511 33.3949 6.32712 33.3949 5.04067C33.3949 2.25119 35.6501 0.00646973 38.4232 0.00646973C40.3899 0.00646973 42.0944 1.13539 42.9073 2.78283C43.8185 1.88363 45.0576 1.34542 46.4146 1.34542C49.2008 1.34542 51.4429 3.59014 51.4429 6.37963C51.4429 6.88501 51.3707 7.37071 51.2265 7.83016C51.2986 7.81703 51.3773 7.81703 51.4429 7.81703C54.229 7.81703 56.4842 10.0617 56.4842 12.8512C56.4842 14.3477 55.8286 15.6932 54.7797 16.6187L54.7863 16.6121Z" fill="#EB6440"/>
<path d="M105.147 74.9419C96.6119 56.9711 87.0602 53.3086 72.0148 44.2772C64.8559 39.9782 57.2644 34.0251 53.1211 26.3064C52.9048 25.9848 52.7212 25.6369 52.5442 25.2825C50.5447 21.1606 50.748 14.5577 47.3062 11.3547C44.2447 8.01393 39.0197 7.02284 34.6864 8.39461C34.6667 8.39461 34.6471 8.40774 34.634 8.4143C32.0641 9.23474 29.9794 11.1775 28.8256 13.6192C20.4736 31.2618 15.2814 48.898 21.0898 72.6644C21.9421 76.1365 20.7882 79.7267 18.2249 82.2143C7.5391 92.5846 17.9562 109.505 35.519 108.895C41.937 108.895 53.8291 108.967 63.512 107.654C64.22 107.556 64.9149 107.53 65.6295 107.582C71.3789 108.002 77.5937 108.488 83.7692 108.527C101.037 108.645 112.569 90.5565 105.147 74.9353V74.9419ZM38.4297 17.9248C37.3939 17.9248 36.5548 17.0847 36.5548 16.0476C36.5548 15.0106 37.3939 14.1705 38.4297 14.1705C39.4655 14.1705 40.3178 15.0106 40.3178 16.0476C40.3178 17.0847 39.4655 17.9248 38.4297 17.9248Z" fill="#F8ECD0" stroke="#F8ECD0" stroke-width="0.25" stroke-miterlimit="10"/>
<path d="M25.823 22.4077C24.4398 22.7621 23.3253 23.8779 22.7222 25.335C21.2406 28.9253 18.3561 30.8418 18.1004 34.4189C17.7988 38.6918 19.8377 40.2539 22.9385 40.0307C26.0394 39.8076 25.1281 36.8212 27.2456 36.0007C29.3631 35.1803 28.6223 36.8868 30.3662 36.4995C32.11 36.1123 34.4307 34.478 32.8901 32.2595C31.3495 30.0411 31.4544 29.2141 32.0772 28.4527C32.7 27.6913 32.4771 25.9848 31.6118 25.2825C31.2971 25.0266 30.8513 24.4818 30.4121 23.8845C29.4025 22.5127 27.7832 21.9023 26.2098 22.3093L25.8165 22.4077H25.823Z" fill="#EB6440"/>
<path d="M30.0712 20.6093C30.5038 25.1578 31.1135 27.291 26.4393 25.1119C24.1841 23.9698 18.4872 24.554 14.9405 23.4513C13.8523 23.11 13.5441 21.7382 14.3898 20.9637C17.0908 18.4696 23.463 16.7434 26.3475 15.6736C30.1236 14.3871 30.0122 17.0585 30.0777 20.6159L30.0712 20.6093Z" fill="#EAA155" stroke="#EAA154" stroke-width="0.25" stroke-miterlimit="10"/>
<path d="M72.5326 95.0985L64.4232 101.918C64.3904 101.99 64.3445 102.056 64.2855 102.128C63.8266 102.666 63.1842 102.948 62.522 102.948C61.991 102.948 61.4731 102.778 61.0404 102.41L52.5049 95.2429C51.5412 94.4225 51.4101 92.9719 52.2295 91.994C53.049 91.0291 54.4978 90.8979 55.4746 91.7183L60.516 95.9583V87.6883C60.516 86.4084 61.5518 85.3845 62.817 85.3845C64.0823 85.3845 65.1181 86.4084 65.1181 87.6883V95.3282L69.5826 91.587C70.5594 90.7666 72.0082 90.8979 72.8276 91.8627C73.6471 92.8407 73.516 94.2912 72.5392 95.1116L72.5326 95.0985Z" fill="#EB6440" stroke="#EA643F" stroke-width="0.25" stroke-miterlimit="10"/>
<path d="M115.676 5.33611C117.551 7.12138 118.495 9.69427 118.495 13.0482C118.495 16.9929 117.328 20.0909 114.988 22.3356C112.647 24.5868 109.415 25.7092 105.298 25.7092H101.103V27.0941L101.325 38.1536H96.8544L97.1298 27.4814L96.8544 2.71071L107.678 2.6582C111.139 2.6582 113.808 3.55084 115.683 5.34267L115.676 5.33611ZM112.169 19.3492C113.362 17.8724 113.965 15.9033 113.965 13.4355C113.965 8.86727 111.533 6.48472 106.675 6.30094L101.319 6.46503L101.155 22.0008L106.957 22.1124C109.238 21.7449 110.982 20.8194 112.175 19.3492H112.169Z" fill="#EAA155"/>
<path d="M133.894 30.2446L134.058 38.1536H129.915L130.138 30.2446L130.085 28.5315L120.75 10.6198H125.28L125.831 12.2212L132.019 24.0552H132.295L139.034 12.3919L139.749 10.6198H144.167L133.953 28.5315L133.901 30.2446H133.894Z" fill="#EAA155"/>
<path d="M167.197 12.2737L166.424 16.0871L165.926 16.2512C165.001 15.4767 163.939 14.8663 162.72 14.4266C161.507 13.9868 160.196 13.7636 158.8 13.7636C156.072 13.7636 153.994 14.6366 152.559 16.389C151.123 18.1415 150.402 20.7472 150.402 24.2127C150.402 27.6783 151.116 30.389 152.559 32.2268C153.994 34.0711 156.072 34.99 158.8 34.99C160.124 34.99 161.461 34.7603 162.805 34.3008C164.149 33.8414 165.355 33.2244 166.424 32.4499L166.922 32.614L166.535 36.4274C164.031 37.7926 161.402 38.4752 158.636 38.4752C154.584 38.4752 151.477 37.2675 149.3 34.8522C147.13 32.4368 146.042 28.9975 146.042 24.5409C146.042 20.0843 147.189 16.5072 149.497 14.0327C151.798 11.5649 155.05 10.3309 159.245 10.3309C162.3 10.3309 164.949 10.9742 167.197 12.2672V12.2737Z" fill="#EAA155"/>
<path d="M193.27 12.2737L192.496 16.0871L191.998 16.2512C191.073 15.4767 190.011 14.8663 188.792 14.4266C187.579 13.9868 186.268 13.7636 184.872 13.7636C182.145 13.7636 180.066 14.6366 178.631 16.389C177.195 18.1415 176.474 20.7472 176.474 24.2127C176.474 27.6783 177.188 30.389 178.631 32.2268C180.066 34.0711 182.145 34.99 184.872 34.99C186.196 34.99 187.533 34.7603 188.877 34.3008C190.221 33.8414 191.427 33.2244 192.496 32.4499L192.994 32.614L192.607 36.4274C190.103 37.7926 187.474 38.4752 184.708 38.4752C180.656 38.4752 177.549 37.2675 175.372 34.8522C173.203 32.4368 172.114 28.9975 172.114 24.5409C172.114 20.0843 173.262 16.5072 175.569 14.0327C177.87 11.5649 181.122 10.3309 185.317 10.3309C188.372 10.3309 191.021 10.9742 193.27 12.2672V12.2737Z" fill="#EAA155"/>
<path d="M204.755 29.5226L204.867 38.147H200.783L200.946 29.8508L200.783 10.6066H204.926L204.762 29.516L204.755 29.5226ZM209.725 23.4973C213.625 28.2886 217.768 32.8634 222.148 37.2084L222.036 37.8188C220.896 38.1864 219.571 38.4621 218.057 38.6458L217.395 38.3702C212.681 33.0603 208.617 28.1968 205.188 23.773V23.4382L214.687 13.0416L216.51 10.6066L221.427 10.5541L209.718 23.4907L209.725 23.4973Z" fill="#EAA155"/>
<path d="M246.915 13.8227C249.072 16.179 250.147 19.5198 250.147 23.8321C250.147 28.5118 248.993 32.1349 246.692 34.6947C244.391 37.2544 241.107 38.5343 236.832 38.5343C232.853 38.5343 229.785 37.3266 227.609 34.9112C225.439 32.4959 224.35 29.0566 224.35 24.6C224.35 20.1434 225.511 16.5006 227.831 14.0131C230.152 11.5255 233.43 10.2784 237.665 10.2784C241.677 10.2784 244.765 11.4599 246.915 13.8162V13.8227ZM230.788 16.2578C229.372 17.9184 228.664 20.5372 228.664 24.1077C228.664 27.9408 229.366 30.7237 230.762 32.4565C232.158 34.1893 234.295 35.0556 237.167 35.0556C240.038 35.0556 242.3 34.209 243.736 32.509C245.171 30.8156 245.893 28.1574 245.893 24.5475C245.893 20.9376 245.184 18.0956 243.768 16.3628C242.352 14.63 240.189 13.7637 237.278 13.7637C234.368 13.7637 232.204 14.5907 230.788 16.2512V16.2578Z" fill="#EAA155"/>
<path d="M274.666 34.6093L275 34.944L274.613 38.1536H257.876L258.04 29.8573L257.876 10.6132H274.718L274.993 10.9479L274.659 14.1574L267.703 13.9343L261.961 13.9868L261.908 22.3356L267.376 22.3881L272.181 22.224L272.456 22.6112L272.122 25.8733L267.041 25.7092L261.908 25.7617L261.856 29.5226L261.908 34.7734L267.317 34.8259L274.659 34.6027L274.666 34.6093Z" fill="#EAA155"/>
<path d="M153.725 70.9907L153.889 79.6152H149.694L149.805 71.3189L149.694 55.3368H137.048L136.936 70.9842L137.048 79.6086H132.852L133.016 71.3123L132.852 51.9631H153.948L153.725 70.9842V70.9907Z" fill="#EAA155"/>
<path d="M183.134 55.2909C185.291 57.6472 186.366 60.988 186.366 65.3002C186.366 69.98 185.213 73.603 182.912 76.1628C180.611 78.7226 177.326 80.0024 173.052 80.0024C169.072 80.0024 166.004 78.7948 163.828 76.3794C161.658 73.964 160.57 70.5248 160.57 66.0681C160.57 61.6115 161.73 57.9688 164.051 55.4812C166.371 52.9936 169.649 51.7466 173.884 51.7466C177.896 51.7466 180.984 52.928 183.134 55.2843V55.2909ZM167.007 57.7259C165.591 59.3865 164.883 62.0053 164.883 65.5759C164.883 69.409 165.585 72.1919 166.981 73.9246C168.378 75.6574 170.515 76.5238 173.386 76.5238C176.257 76.5238 178.519 75.6771 179.955 73.9771C181.391 72.2838 182.112 69.6256 182.112 66.0156C182.112 62.4057 181.404 59.5637 179.988 57.8309C178.572 56.0982 176.408 55.2318 173.498 55.2318C170.587 55.2318 168.423 56.0588 167.007 57.7194V57.7259Z" fill="#EAA155"/>
<path d="M210.662 70.9907L210.773 79.6151H206.578L206.742 71.3189L206.63 55.2843H199.452L199.229 57.4962C198.678 63.1342 198.049 67.5252 197.354 70.656C196.652 73.7868 195.767 76.0774 194.705 77.5148C193.643 78.9522 192.24 79.8186 190.51 80.114L189.297 80.2781L188.471 76.7403C189.946 76.3006 191.113 75.4342 191.978 74.1412C192.844 72.8482 193.545 70.8726 194.076 68.1947C194.607 65.5233 195.099 61.6968 195.538 56.7217L195.977 52.0747L195.925 51.9631H210.891L210.669 70.9842L210.662 70.9907Z" fill="#EAA155"/>
<path d="M237.888 76.0774L238.222 76.4122L237.836 79.6217H221.099L221.263 71.3255L221.099 52.0813H237.94L238.216 52.416L237.881 55.6256L230.926 55.4024L225.183 55.4549L225.131 63.8037L230.598 63.8562L235.403 63.6921L235.679 64.0794L235.344 67.3414L230.264 67.1773L225.131 67.2299L225.078 70.9907L225.131 76.2415L230.539 76.294L237.881 76.0709L237.888 76.0774Z" fill="#EAA155"/>
<path d="M30.3596 107.937C30.2547 107.937 30.1498 107.91 30.0515 107.845C29.7827 107.674 29.704 107.32 29.8745 107.051L30.3662 106.276C49.1615 76.596 77.9346 56.6889 111.382 50.2304L112.968 49.922C113.283 49.8563 113.585 50.0663 113.644 50.3748C113.703 50.6899 113.499 50.9918 113.191 51.0509L111.605 51.3594C78.4722 57.7588 49.9678 77.4821 31.343 106.893L30.8513 107.668C30.7398 107.838 30.5563 107.937 30.3662 107.937H30.3596Z" fill="#EAA155"/>
<path d="M122.75 51.0772C119.688 51.7269 116.725 51.3003 114.463 50.0992C116.043 48.0842 118.58 46.4893 121.642 45.8395C124.703 45.1897 127.673 45.6163 129.928 46.824C128.342 48.839 125.811 50.4274 122.75 51.0772Z" fill="#EAA155"/>
<path d="M112.431 47.0538C110.661 48.8259 108.491 49.8367 106.445 50.0205C106.622 47.9792 107.632 45.8001 109.409 44.028C111.185 42.2558 113.355 41.2451 115.394 41.0613C115.21 43.1091 114.201 45.2816 112.431 47.0538Z" fill="#EAA155"/>
<path d="M114.443 53.4728C112.116 52.5408 109.723 52.4686 107.776 53.1053C108.747 54.9103 110.53 56.5183 112.857 57.4503C115.184 58.3823 117.584 58.4545 119.524 57.8179C118.554 56.0129 116.771 54.4114 114.443 53.4794V53.4728Z" fill="#EAA155"/>
<path d="M106.668 56.5904C104.597 55.1793 102.269 54.6017 100.231 54.8051C100.788 56.7742 102.191 58.7301 104.262 60.1347C106.334 61.5393 108.668 62.1234 110.7 61.92C110.136 59.9444 108.74 58.0016 106.662 56.5904H106.668Z" fill="#EAA155"/>
<path d="M103.902 47.8544C102.532 50.2304 100.519 51.9172 98.4147 52.6917C98.0279 50.4798 98.4737 47.8873 99.8504 45.5113C101.227 43.1353 103.24 41.4485 105.344 40.6805C105.731 42.8924 105.279 45.4785 103.908 47.861L103.902 47.8544Z" fill="#EAA155"/>
<path d="M94.6648 50.04C94.0682 52.2782 92.7899 54.0963 91.2427 55.1858C90.4429 53.4662 90.2463 51.2543 90.8428 49.0161C91.4394 46.778 92.7178 44.9599 94.2715 43.8704C95.0713 45.59 95.2679 47.8019 94.6648 50.04Z" fill="#EAA155"/>
</g>
<defs>
<clipPath id="clip0_45_21">
<rect width="275" height="109" fill="white"/>
</clipPath>
</defs>
</svg>
