<svg width="315" height="195" viewBox="0 0 315 195" fill="none" xmlns="http://www.w3.org/2000/svg">
<g clip-path="url(#clip0_46_60)">
<path d="M195.21 107.02L224.8 95.9C228.08 94.67 230.26 91.5299 230.26 88.0199V62.2L195.21 75.5999V107.01V107.02Z" fill="#00963D"/>
<path d="M193.42 109.61V74.37L232.06 59.59V88.02C232.06 92.25 229.4 96.09 225.44 97.58L193.42 109.61ZM197.01 76.84V104.42L224.17 94.21C226.74 93.25 228.46 90.76 228.46 88.01V64.8L197 76.83L197.01 76.84Z" fill="black"/>
<path d="M197.02 109.6L158.37 95.0899V67.4399C158.37 63.5699 160.8 60.0299 164.42 58.6499L164.67 58.5799L182.83 54.5099C185.01 53.6199 186.46 51.4699 186.46 49.1199V33.9999C186.46 31.4699 187.38 29.2999 189.12 27.7099C191.34 25.6899 194.85 24.7299 198.76 25.0999L232.07 29.1899V63.4399L200.77 75.4099C198.53 76.2599 197.03 78.4499 197.03 80.8399V109.6H197.02ZM161.96 92.5999L193.43 104.41V80.8399C193.43 76.9699 195.86 73.4299 199.48 72.0499L228.47 60.9699V32.3699L198.36 28.6799C195.51 28.4099 193 29.0299 191.53 30.3799C190.54 31.2799 190.04 32.4999 190.04 34.0099V49.1299C190.04 52.9999 187.61 56.5399 183.99 57.9199L183.74 57.9899L165.58 62.0599C163.4 62.9399 161.95 65.0899 161.95 67.4499V92.6099L161.96 92.5999Z" fill="black"/>
<path d="M117.26 107.01L87.67 95.8899C84.39 94.6599 82.21 91.5199 82.21 88.0099V62.1899L117.26 75.5899V107V107.01Z" fill="#00963D"/>
<path d="M119.05 109.6L87.03 97.57C83.07 96.08 80.41 92.24 80.41 88.01V59.58L119.05 74.36V109.6ZM84 64.8V88.01C84 90.75 85.73 93.24 88.29 94.21L115.45 104.42V76.84L83.99 64.81L84 64.8Z" fill="black"/>
<path d="M115.45 109.59V80.83C115.45 78.44 113.95 76.25 111.71 75.4L80.41 63.43V29.18L113.67 25.1C117.62 24.73 121.14 25.68 123.36 27.7C125.1 29.28 126.02 31.46 126.02 33.99V49.11C126.02 51.47 127.47 53.62 129.65 54.5L148.06 58.64C151.68 60.02 154.11 63.55 154.11 67.43V95.08L115.46 109.59H115.45ZM84 60.96L112.99 72.04C116.61 73.42 119.04 76.95 119.04 80.83V104.4L150.51 92.59V67.43C150.51 65.07 149.06 62.92 146.88 62.04L128.47 57.9C124.85 56.52 122.42 52.99 122.42 49.11V33.99C122.42 32.48 121.92 31.25 120.93 30.36C119.46 29.02 116.95 28.4 114.05 28.67L83.99 32.36V60.96H84Z" fill="black"/>
<path d="M165.061 14.9707C167.445 8.08144 168.252 2.10711 166.864 1.62664C165.476 1.14618 162.418 6.34151 160.033 13.2308C157.649 20.12 156.842 26.0943 158.23 26.5748C159.618 27.0553 162.677 21.8599 165.061 14.9707Z" fill="#FFCD2E"/>
<path d="M169.585 18.5404C174.187 12.8861 176.994 7.55064 175.854 6.62334C174.715 5.69603 170.061 9.528 165.459 15.1823C160.858 20.8366 158.051 26.172 159.19 27.0993C160.33 28.0266 164.984 24.1947 169.585 18.5404Z" fill="#FFCD2E"/>
<path d="M172.628 23.4738C178.89 19.7409 183.356 15.6919 182.604 14.43C181.852 13.1681 176.166 15.1712 169.904 18.9041C163.642 22.637 159.175 26.686 159.927 27.9479C160.68 29.2098 166.366 27.2067 172.628 23.4738Z" fill="#FFCD2E"/>
<path d="M173.78 29.1172C180.942 27.7574 186.526 25.485 186.252 24.0417C185.978 22.5984 179.95 22.5308 172.788 23.8905C165.625 25.2503 160.041 27.5227 160.315 28.966C160.589 30.4093 166.618 30.477 173.78 29.1172Z" fill="#FFCD2E"/>
<path d="M186.357 34.337C186.595 32.8872 180.955 30.7569 173.76 29.5788C166.566 28.4007 160.542 28.6209 160.304 30.0706C160.067 31.5204 165.706 33.6507 172.901 34.8288C180.095 36.007 186.12 35.7867 186.357 34.337Z" fill="#FFCD2E"/>
<path d="M182.972 44.0652C183.693 42.7848 179.126 38.8493 172.772 35.2749C166.418 31.7006 160.684 29.841 159.963 31.1214C159.243 32.4017 163.81 36.3373 170.164 39.9116C176.517 43.4859 182.252 45.3455 182.972 44.0652Z" fill="#FFCD2E"/>
<path d="M176.432 52.0103C177.547 51.0544 174.606 45.7917 169.863 40.2557C165.12 34.7197 160.37 31.0067 159.255 31.9625C158.139 32.9184 161.08 38.1811 165.823 43.7171C170.567 49.2532 175.316 52.9661 176.432 52.0103Z" fill="#FFCD2E"/>
<path d="M167.574 57.268C168.949 56.7528 167.992 50.8006 165.435 43.9735C162.879 37.1463 159.691 32.0295 158.315 32.5447C156.939 33.0599 157.897 39.012 160.453 45.8392C163.01 52.6663 166.198 57.7832 167.574 57.268Z" fill="#FFCD2E"/>
<path d="M157.45 59.1298C158.919 59.1175 160.06 53.1979 159.999 45.908C159.938 38.6181 158.698 32.7185 157.229 32.7308C155.76 32.7431 154.618 38.6627 154.679 45.9526C154.74 53.2425 155.981 59.1421 157.45 59.1298Z" fill="#FFCD2E"/>
<path d="M154.218 45.8718C156.66 39.0028 157.517 33.0355 156.133 32.5434C154.749 32.0513 151.647 37.2208 149.205 44.0899C146.763 50.9589 145.906 56.9263 147.29 57.4183C148.674 57.9104 151.776 52.7409 154.218 45.8718Z" fill="#FFCD2E"/>
<path d="M148.821 43.8746C153.471 38.2599 156.323 32.9486 155.192 32.0116C154.06 31.0746 149.374 34.8666 144.724 40.4813C140.074 46.0961 137.222 51.4073 138.353 52.3443C139.485 53.2813 144.171 49.4893 148.821 43.8746Z" fill="#FFCD2E"/>
<path d="M144.43 40.1208C150.723 36.4406 155.223 32.4291 154.482 31.1609C153.74 29.8928 148.037 31.8482 141.744 35.5285C135.451 39.2088 130.951 43.2203 131.693 44.4884C132.434 45.7566 138.137 43.8011 144.43 40.1208Z" fill="#FFCD2E"/>
<path d="M141.574 35.0907C148.748 33.791 154.351 31.5655 154.089 30.12C153.827 28.6744 147.799 28.5562 140.626 29.856C133.453 31.1557 127.85 33.3812 128.112 34.8267C128.374 36.2723 134.401 36.3905 141.574 35.0907Z" fill="#FFCD2E"/>
<path d="M154.087 29.0226C154.336 27.5749 148.715 25.3965 141.531 24.1569C134.347 22.9173 128.321 23.086 128.071 24.5336C127.821 25.9813 133.443 28.1598 140.627 29.3994C147.811 30.639 153.837 30.4703 154.087 29.0226Z" fill="#FFCD2E"/>
<path d="M154.459 27.9867C155.19 26.7124 150.656 22.7388 144.333 19.1114C138.009 15.4839 132.29 13.5763 131.559 14.8506C130.828 16.1249 135.362 20.0986 141.685 23.726C148.009 27.3534 153.728 29.261 154.459 27.9867Z" fill="#FFCD2E"/>
<path d="M155.156 27.1387C156.279 26.1923 153.383 20.9051 148.686 15.3295C143.989 9.75395 139.271 6.00131 138.147 6.94777C137.024 7.89424 139.92 13.1814 144.617 18.757C149.314 24.3326 154.032 28.0852 155.156 27.1387Z" fill="#FFCD2E"/>
<path d="M156.113 26.5989C157.493 26.0952 156.586 20.1352 154.086 13.2869C151.587 6.43857 148.442 1.2952 147.062 1.79886C145.682 2.30252 146.589 8.26248 149.089 15.1108C151.588 21.9591 154.733 27.1025 156.113 26.5989Z" fill="#FFCD2E"/>
<path d="M157.2 26.4C158.669 26.4 159.86 20.4902 159.86 13.2C159.86 5.90984 158.669 0 157.2 0C155.731 0 154.54 5.90984 154.54 13.2C154.54 20.4902 155.731 26.4 157.2 26.4Z" fill="#FFCD2E"/>
<path d="M55.34 142.72V145.31H44.3V121.86H46.84L46.88 142.72H50.5V121.86H53.09V142.72H55.33H55.34Z" fill="#1D1D1B"/>
<path d="M59.52 137.38V140.79C59.52 141.87 60.38 142.73 61.42 142.73C62.46 142.73 63.36 141.87 63.36 140.79V139.45H65.95V140.79C65.95 143.29 63.92 145.32 61.42 145.32C58.92 145.32 56.94 143.29 56.94 140.84V140.8L56.98 129.81V126.32C56.98 123.82 59.01 121.79 61.51 121.79C64.01 121.79 65.99 123.82 65.99 126.32V133.35C65.99 135.85 63.96 137.83 61.51 137.83C60.78 137.83 60.13 137.7 59.53 137.4L59.52 137.38ZM59.56 133.33C59.56 134.36 60.42 135.23 61.5 135.23C62.58 135.23 63.4 134.37 63.4 133.33V126.3C63.4 125.22 62.54 124.36 61.5 124.36C60.46 124.36 59.56 125.22 59.56 126.3V133.33Z" fill="#1D1D1B"/>
<path d="M74.09 131.77L70.43 131.81L70.47 145.3H67.88L67.84 121.85H70.43V129.22L74.09 129.18L74.05 121.85H76.64L76.68 145.3H74.09V131.76V131.77Z" fill="#1D1D1B"/>
<path d="M84.52 124.45V145.31H81.93V124.45L77.96 124.49V121.9L88.48 121.86V124.45H84.51H84.52Z" fill="#1D1D1B"/>
<path d="M98.48 127.12V141.04C98.48 143.45 96.54 145.35 94.17 145.35C93.52 145.35 92.92 145.22 92.36 144.96V151.64H89.86L89.9 121.77H92.36V123.19C92.92 122.93 93.52 122.8 94.17 122.8C96.54 122.8 98.48 124.74 98.48 127.11V127.12ZM96.02 127.12C96.02 126.13 95.2 125.31 94.17 125.31C93.26 125.31 92.53 125.96 92.36 126.82V141.26C92.45 142.17 93.22 142.9 94.17 142.9C95.2 142.9 96.02 142.08 96.02 141.05V127.13V127.12Z" fill="#1D1D1B"/>
<path d="M114.77 124.45H111.15V145.31H108.61L108.57 121.86H117.36V145.31H114.77V124.45Z" fill="#1D1D1B"/>
<path d="M119.6 140.78V126.3C119.6 123.8 121.63 121.77 124.13 121.77C126.63 121.77 128.66 123.8 128.66 126.3V129.19H126.07V126.3C126.07 125.22 125.21 124.36 124.13 124.36C123.05 124.36 122.19 125.22 122.19 126.3V140.78C122.19 141.86 123.05 142.72 124.13 142.72C124.65 142.72 125.12 142.5 125.47 142.16C125.86 141.82 126.07 141.3 126.07 140.78V137.89H128.66V140.78C128.66 143.28 126.63 145.31 124.13 145.31C121.63 145.31 119.6 143.28 119.6 140.78Z" fill="#1D1D1B"/>
<path d="M132.96 145.31H130.42V121.86H133.01V131.6L137.23 127.38V121.86H139.82L139.78 145.31H137.19V131L133.01 135.27L132.97 145.31H132.96Z" fill="#1D1D1B"/>
<path d="M149.64 133.41C150.46 134.23 150.98 135.35 150.98 136.64V145.3H148.39V136.64C148.39 135.56 147.53 134.7 146.49 134.7C145.45 134.7 144.55 135.56 144.55 136.64V145.3H141.96V136.64C141.96 135.35 142.48 134.23 143.3 133.41C142.48 132.59 141.96 131.43 141.96 130.18V121.86H144.55V130.18C144.55 131.26 145.41 132.12 146.49 132.12C147.57 132.12 148.39 131.26 148.39 130.18V121.86H150.98V130.18C150.98 131.43 150.46 132.59 149.64 133.41Z" fill="#1D1D1B"/>
<path d="M153.56 140.78V126.3C153.56 123.8 155.59 121.77 158.04 121.77C160.49 121.77 162.57 123.8 162.57 126.3V140.78C162.57 143.28 160.54 145.31 158.04 145.31C155.54 145.31 153.56 143.28 153.56 140.78ZM156.15 126.3V140.78C156.15 141.86 157.01 142.72 158.05 142.72C159.09 142.72 159.99 141.86 159.99 140.78V126.3C159.99 125.22 159.13 124.36 158.05 124.36C156.97 124.36 156.15 125.22 156.15 126.3Z" fill="#1D1D1B"/>
<path d="M167.14 145.31H164.55L164.59 128.54L171.36 121.86H173.95L173.91 145.31H171.32L171.36 125.52L167.14 129.74V145.3V145.31Z" fill="#1D1D1B"/>
<path d="M175.93 140.78V126.3C175.93 123.8 177.96 121.77 180.41 121.77C182.86 121.77 184.94 123.8 184.94 126.3V140.78C184.94 143.28 182.91 145.31 180.41 145.31C177.91 145.31 175.93 143.28 175.93 140.78ZM178.52 126.3V140.78C178.52 141.86 179.38 142.72 180.42 142.72C181.46 142.72 182.36 141.86 182.36 140.78V126.3C182.36 125.22 181.5 124.36 180.42 124.36C179.34 124.36 178.52 125.22 178.52 126.3Z" fill="#1D1D1B"/>
<path d="M189.51 145.31H186.92L186.88 121.86H193.43L193.47 124.45H189.46L189.5 145.31H189.51Z" fill="#1D1D1B"/>
<path d="M197.7 145.31H195.16V121.86H197.75V131.6L201.97 127.38V121.86H204.56L204.52 145.31H201.93V131L197.75 135.27L197.71 145.31H197.7Z" fill="#1D1D1B"/>
<path d="M215.32 121.86V145.31H212.73V137.72H206.39V121.86H208.98V135.22H212.73V121.86H215.32Z" fill="#1D1D1B"/>
<path d="M219.98 137.38V140.79C219.98 141.87 220.84 142.73 221.88 142.73C222.92 142.73 223.82 141.87 223.82 140.79V139.45H226.41V140.79C226.41 143.29 224.38 145.32 221.88 145.32C219.38 145.32 217.4 143.29 217.4 140.84V140.8L217.44 129.81V126.32C217.44 123.82 219.47 121.79 221.97 121.79C224.47 121.79 226.45 123.82 226.45 126.32V133.35C226.45 135.85 224.42 137.83 221.97 137.83C221.24 137.83 220.59 137.7 219.99 137.4L219.98 137.38ZM220.02 133.33C220.02 134.36 220.88 135.23 221.96 135.23C223.04 135.23 223.86 134.37 223.86 133.33V126.3C223.86 125.22 223 124.36 221.96 124.36C220.92 124.36 220.02 125.22 220.02 126.3V133.33Z" fill="#1D1D1B"/>
<path d="M228.25 140.78V126.3C228.25 123.8 230.28 121.77 232.78 121.77C235.28 121.77 237.31 123.8 237.31 126.3V129.19H234.72V126.3C234.72 125.22 233.86 124.36 232.78 124.36C231.7 124.36 230.84 125.22 230.84 126.3V140.78C230.84 141.86 231.7 142.72 232.78 142.72C233.3 142.72 233.77 142.5 234.12 142.16C234.51 141.82 234.72 141.3 234.72 140.78V137.89H237.31V140.78C237.31 143.28 235.28 145.31 232.78 145.31C230.28 145.31 228.25 143.28 228.25 140.78Z" fill="#1D1D1B"/>
<path d="M245.41 139.06L241.57 135.27V145.31H239.03L238.99 121.86H241.58V131.56L245.37 127.72V121.86H247.96V128.8L243.39 133.41L247.96 137.98L248 145.31H245.41V139.06Z" fill="#1D1D1B"/>
<path d="M249.71 140.78V126.3C249.71 123.8 251.74 121.77 254.19 121.77C256.64 121.77 258.72 123.8 258.72 126.3V140.78C258.72 143.28 256.69 145.31 254.19 145.31C251.69 145.31 249.71 143.28 249.71 140.78ZM252.3 126.3V140.78C252.3 141.86 253.16 142.72 254.2 142.72C255.24 142.72 256.14 141.86 256.14 140.78V126.3C256.14 125.22 255.28 124.36 254.2 124.36C253.12 124.36 252.3 125.22 252.3 126.3Z" fill="#1D1D1B"/>
<path d="M263.29 145.31H260.7L260.74 121.86H263.33V131.6L267.55 127.33V121.86H270.14L270.1 145.31H267.51V131L263.33 135.27L263.29 145.31ZM263.46 116.77H267.38V119.36H263.46V116.77Z" fill="#1D1D1B"/>
<path d="M6.21 167.54H2.59V188.4H0.04L0 164.95H8.79V188.4H6.2V167.54H6.21Z" fill="#1D1D1B"/>
<path d="M10.95 183.88V169.4C10.95 166.9 12.98 164.87 15.43 164.87C17.88 164.87 19.96 166.9 19.96 169.4V183.88C19.96 186.38 17.93 188.41 15.43 188.41C12.93 188.41 10.95 186.38 10.95 183.88ZM13.54 169.4V183.88C13.54 184.96 14.4 185.82 15.44 185.82C16.48 185.82 17.38 184.96 17.38 183.88V169.4C17.38 168.32 16.52 167.46 15.44 167.46C14.36 167.46 13.54 168.32 13.54 169.4Z" fill="#1D1D1B"/>
<path d="M34.57 185.86V188.4H20.65V185.86H22.89V170.34C22.89 167.15 24.83 164.95 27.63 164.95C30.43 164.95 32.33 167.15 32.33 170.34V185.86H34.57ZM25.47 185.86H29.74V170.34C29.74 168.62 28.92 167.54 27.63 167.54C26.34 167.54 25.47 168.62 25.47 170.34V185.86Z" fill="#1D1D1B"/>
<path d="M50.21 185.86V188.4H36.29V185.86H38.53V170.34C38.53 167.15 40.47 164.95 43.27 164.95C46.07 164.95 47.97 167.15 47.97 170.34V185.86H50.21ZM41.11 185.86H45.38V170.34C45.38 168.62 44.56 167.54 43.27 167.54C41.98 167.54 41.11 168.62 41.11 170.34V185.86Z" fill="#1D1D1B"/>
<path d="M53.79 180.48V183.89C53.79 184.97 54.65 185.83 55.69 185.83C56.73 185.83 57.63 184.97 57.63 183.89V182.55H60.22V183.89C60.22 186.39 58.19 188.42 55.69 188.42C53.19 188.42 51.21 186.39 51.21 183.94V183.9L51.25 172.91V169.42C51.25 166.92 53.28 164.89 55.78 164.89C58.28 164.89 60.26 166.92 60.26 169.42V176.45C60.26 178.95 58.23 180.93 55.78 180.93C55.05 180.93 54.4 180.8 53.8 180.5L53.79 180.48ZM53.83 176.43C53.83 177.46 54.69 178.33 55.77 178.33C56.85 178.33 57.67 177.47 57.67 176.43V169.4C57.67 168.32 56.81 167.46 55.77 167.46C54.73 167.46 53.83 168.32 53.83 169.4V176.43Z" fill="#1D1D1B"/>
<path d="M71.33 170.22V184.14C71.33 186.55 69.39 188.45 67.02 188.45C66.37 188.45 65.77 188.32 65.21 188.06V194.74H62.71L62.75 164.87H65.21V166.29C65.77 166.03 66.37 165.9 67.02 165.9C69.39 165.9 71.33 167.84 71.33 170.21V170.22ZM68.87 170.22C68.87 169.23 68.05 168.41 67.02 168.41C66.11 168.41 65.38 169.06 65.21 169.92V184.36C65.3 185.27 66.07 186 67.02 186C68.05 186 68.87 185.18 68.87 184.15V170.23V170.22Z" fill="#1D1D1B"/>
<path d="M85.42 173.49C85.42 174.74 84.9 175.9 84.08 176.68C84.9 177.5 85.42 178.66 85.42 179.91V188.4H82.83V181.11C82.83 180.25 82.05 178.83 80.63 178.22V188.39H78.04V178.22C76.62 178.82 75.84 180.25 75.84 181.11V188.4H73.25V179.91C73.25 178.66 73.77 177.5 74.59 176.68C73.77 175.9 73.25 174.74 73.25 173.49V164.95H75.84V172.41C75.84 173.23 76.66 174.61 78.04 175.17V164.95H80.63V175.17C82.01 174.61 82.83 173.23 82.83 172.41V164.95H85.42V173.49Z" fill="#1D1D1B"/>
<path d="M93.87 182.16L90.03 178.37V188.41H87.49L87.45 164.96H90.04V174.66L93.83 170.82V164.96H96.42V171.9L91.85 176.51L96.42 181.08L96.46 188.41H93.87V182.16Z" fill="#1D1D1B"/>
<path d="M101.24 188.41H98.7V164.96H101.29V174.7L105.51 170.48V164.96H108.1L108.06 188.41H105.47V174.1L101.29 178.37L101.25 188.41H101.24Z" fill="#1D1D1B"/>
<path d="M131.93 185.86V188.4H118.01V185.86H120.25V170.34C120.25 167.15 122.19 164.95 124.99 164.95C127.79 164.95 129.69 167.15 129.69 170.34V185.86H131.93ZM122.83 185.86H127.1V170.34C127.1 168.62 126.28 167.54 124.99 167.54C123.7 167.54 122.83 168.62 122.83 170.34V185.86Z" fill="#1D1D1B"/>
<path d="M135.5 180.48V183.89C135.5 184.97 136.36 185.83 137.4 185.83C138.44 185.83 139.34 184.97 139.34 183.89V182.55H141.93V183.89C141.93 186.39 139.9 188.42 137.4 188.42C134.9 188.42 132.92 186.39 132.92 183.94V183.9L132.96 172.91V169.42C132.96 166.92 134.99 164.89 137.49 164.89C139.99 164.89 141.97 166.92 141.97 169.42V176.45C141.97 178.95 139.94 180.93 137.49 180.93C136.76 180.93 136.11 180.8 135.51 180.5L135.5 180.48ZM135.54 176.43C135.54 177.46 136.4 178.33 137.48 178.33C138.56 178.33 139.38 177.47 139.38 176.43V169.4C139.38 168.32 138.52 167.46 137.48 167.46C136.44 167.46 135.54 168.32 135.54 169.4V176.43Z" fill="#1D1D1B"/>
<path d="M149.42 167.54V188.4H146.83V167.54L142.86 167.58V164.99L153.38 164.95V167.54H149.41H149.42Z" fill="#1D1D1B"/>
<path d="M156.88 180.48V183.89C156.88 184.97 157.74 185.83 158.78 185.83C159.82 185.83 160.72 184.97 160.72 183.89V182.55H163.31V183.89C163.31 186.39 161.28 188.42 158.78 188.42C156.28 188.42 154.3 186.39 154.3 183.94V183.9L154.34 172.91V169.42C154.34 166.92 156.37 164.89 158.87 164.89C161.37 164.89 163.35 166.92 163.35 169.42V176.45C163.35 178.95 161.32 180.93 158.87 180.93C158.14 180.93 157.49 180.8 156.89 180.5L156.88 180.48ZM156.92 176.43C156.92 177.46 157.78 178.33 158.86 178.33C159.94 178.33 160.76 177.47 160.76 176.43V169.4C160.76 168.32 159.9 167.46 158.86 167.46C157.82 167.46 156.92 168.32 156.92 169.4V176.43Z" fill="#1D1D1B"/>
<path d="M168.13 188.41H165.54L165.58 164.96H168.17V174.7L172.39 170.43V164.96H174.98L174.94 188.41H172.35V174.1L168.17 178.37L168.13 188.41ZM168.3 159.87H172.22V162.46H168.3V159.87Z" fill="#1D1D1B"/>
<path d="M187.61 188.41H185.07V164.96H187.66V174.7L191.88 170.48V164.96H194.47L194.43 188.41H191.84V174.1L187.66 178.37L187.62 188.41H187.61Z" fill="#1D1D1B"/>
<path d="M210.75 167.54H207.13V188.4H204.59L204.55 164.95H213.34V188.4H210.75V167.54Z" fill="#1D1D1B"/>
<path d="M215.49 183.88V169.4C215.49 166.9 217.52 164.87 219.97 164.87C222.42 164.87 224.5 166.9 224.5 169.4V183.88C224.5 186.38 222.47 188.41 219.97 188.41C217.47 188.41 215.49 186.38 215.49 183.88ZM218.08 169.4V183.88C218.08 184.96 218.94 185.82 219.98 185.82C221.02 185.82 221.92 184.96 221.92 183.88V169.4C221.92 168.32 221.06 167.46 219.98 167.46C218.9 167.46 218.08 168.32 218.08 169.4Z" fill="#1D1D1B"/>
<path d="M239.11 185.86V188.4H225.19V185.86H227.43V170.34C227.43 167.15 229.37 164.95 232.17 164.95C234.97 164.95 236.87 167.15 236.87 170.34V185.86H239.11ZM230.01 185.86H234.28V170.34C234.28 168.62 233.46 167.54 232.17 167.54C230.88 167.54 230.01 168.62 230.01 170.34V185.86Z" fill="#1D1D1B"/>
<path d="M248.98 170.22V184.14C248.98 186.55 247.04 188.45 244.67 188.45C244.02 188.45 243.42 188.32 242.86 188.06V194.74H240.36L240.4 164.87H242.86V166.29C243.42 166.03 244.02 165.9 244.67 165.9C247.04 165.9 248.98 167.84 248.98 170.21V170.22ZM246.52 170.22C246.52 169.23 245.7 168.41 244.67 168.41C243.76 168.41 243.03 169.06 242.86 169.92V184.36C242.95 185.27 243.72 186 244.67 186C245.71 186 246.52 185.18 246.52 184.15V170.23V170.22Z" fill="#1D1D1B"/>
<path d="M250.92 183.88V169.4C250.92 166.9 252.95 164.87 255.4 164.87C257.85 164.87 259.93 166.9 259.93 169.4V183.88C259.93 186.38 257.9 188.41 255.4 188.41C252.9 188.41 250.92 186.38 250.92 183.88ZM253.51 169.4V183.88C253.51 184.96 254.37 185.82 255.41 185.82C256.45 185.82 257.35 184.96 257.35 183.88V169.4C257.35 168.32 256.49 167.46 255.41 167.46C254.33 167.46 253.51 168.32 253.51 169.4Z" fill="#1D1D1B"/>
<path d="M261.48 183.88V169.4C261.48 166.9 263.51 164.87 266.01 164.87C268.51 164.87 270.54 166.9 270.54 169.4V172.29H267.95V169.4C267.95 168.32 267.09 167.46 266.01 167.46C264.93 167.46 264.07 168.32 264.07 169.4V183.88C264.07 184.96 264.93 185.82 266.01 185.82C266.53 185.82 267 185.6 267.35 185.26C267.74 184.92 267.95 184.4 267.95 183.88V180.99H270.54V183.88C270.54 186.38 268.51 188.41 266.01 188.41C263.51 188.41 261.48 186.38 261.48 183.88Z" fill="#1D1D1B"/>
<path d="M277.9 167.54V188.4H275.31V167.54L271.34 167.58V164.99L281.86 164.95V167.54H277.89H277.9Z" fill="#1D1D1B"/>
<path d="M289.97 182.16L286.13 178.37V188.41H283.59L283.55 164.96H286.14V174.66L289.93 170.82V164.96H292.52V171.9L287.95 176.51L292.52 181.08L292.56 188.41H289.97V182.16Z" fill="#1D1D1B"/>
<path d="M294.28 183.88V169.4C294.28 166.9 296.31 164.87 298.76 164.87C301.21 164.87 303.29 166.9 303.29 169.4V183.88C303.29 186.38 301.26 188.41 298.76 188.41C296.26 188.41 294.28 186.38 294.28 183.88ZM296.87 169.4V183.88C296.87 184.96 297.73 185.82 298.77 185.82C299.81 185.82 300.71 184.96 300.71 183.88V169.4C300.71 168.32 299.85 167.46 298.77 167.46C297.69 167.46 296.87 168.32 296.87 169.4Z" fill="#1D1D1B"/>
<path d="M314.45 176.9V183.93C314.45 186.39 312.42 188.41 309.92 188.41C309.27 188.41 308.63 188.24 308.02 187.98V188.41H305.43L305.39 164.96H307.98V165.39C308.58 165.13 309.23 164.96 309.92 164.96C312.38 164.96 314.4 166.99 314.4 169.44V170.17C314.4 171.51 313.84 172.67 312.89 173.53C313.84 174.35 314.44 175.56 314.44 176.89L314.45 176.9ZM308.03 170.18C308.03 171.21 308.89 172.08 309.93 172.08C310.97 172.08 311.83 171.22 311.83 170.18V169.45C311.83 168.42 310.97 167.55 309.93 167.55C308.89 167.55 308.03 168.41 308.03 169.45V170.18ZM311.87 176.9C311.87 175.82 311.01 174.96 309.93 174.96C308.85 174.96 308.03 175.82 308.03 176.9V183.93C308.03 184.97 308.89 185.83 309.93 185.83C310.97 185.83 311.87 184.97 311.87 183.93V176.9Z" fill="#1D1D1B"/>
</g>
<defs>
<clipPath id="clip0_46_60">
<rect width="314.45" height="194.74" fill="white"/>
</clipPath>
</defs>
</svg>
