<svg width="99" height="99" viewBox="0 0 99 99" fill="none" xmlns="http://www.w3.org/2000/svg">
<g clip-path="url(#clip0_9_958)">
<path d="M53.6426 60.7785C57.7321 60.2813 58.4891 69.4103 56.9899 73.5889C55.5203 77.6784 53.9691 81.2854 55.3274 84.6847C57.3313 89.6945 61.3169 91.1196 57.2348 98.022C59.3278 94.4891 54.1695 91.3571 50.607 88.1285C47.0964 84.9519 47.9054 78.4725 49.1152 74.2049C51.1859 66.872 39.6818 62.4856 53.6426 60.7785Z" fill="#F7AE63"/>
<path d="M46.3542 61.684C44.0163 60.8082 41.9455 66.6938 42.094 69.6404C42.2424 72.5201 43.1331 75.4592 41.7229 77.5077C39.6447 80.521 36.4162 80.5581 37.6111 85.6347C37.0025 83.037 40.6096 81.6714 43.2963 80.0386C45.9831 78.4057 46.614 74.0713 46.6585 71.1025C46.7327 66.011 54.3254 64.6825 46.3616 61.684H46.3542Z" fill="#FDCA63"/>
<path d="M44.0311 60.452C47.2745 62.9903 41.3592 69.9818 37.3365 71.8744C33.4028 73.7225 29.7587 75.1772 28.3188 78.5468C26.1961 83.5046 27.9997 87.3344 20.2363 89.3235C24.2144 88.2992 22.782 82.4433 22.5445 77.6413C22.307 72.9135 27.4578 68.9056 31.3321 66.7384C37.9822 63.02 32.9501 51.7831 44.0237 60.4446L44.0311 60.452Z" fill="#F7AE63"/>
<path d="M38.2346 55.932C37.2029 53.6609 31.577 56.3625 29.6028 58.5445C27.6657 60.6821 26.2184 63.3911 23.7765 63.8438C20.1769 64.5044 17.8687 62.2481 15.1225 66.6864C16.5327 64.4153 20.0433 66.0036 23.1011 66.7458C26.159 67.488 29.6696 64.8681 31.7923 62.8047C35.4439 59.257 41.7526 63.688 38.242 55.9394L38.2346 55.932Z" fill="#FDCA63"/>
<path d="M37.4701 53.4234C37.9674 57.5129 28.8383 58.2699 24.6598 56.7707C20.5702 55.3011 16.9632 53.7499 13.5639 55.1081C8.55408 57.1121 7.12906 61.0903 0.226624 57.0156C3.75948 59.1086 6.89155 53.9503 10.1201 50.3878C13.2967 46.8772 19.7761 47.6862 24.0437 48.896C31.3766 50.9667 35.763 39.4626 37.4701 53.4234Z" fill="#F7AE63"/>
<path d="M36.5646 46.1276C37.4404 43.7896 31.5548 41.7189 28.6082 41.8674C25.7285 42.0158 22.7894 42.9064 20.741 41.4963C17.7276 39.4181 17.6905 36.1895 12.6139 37.3845C15.2116 36.7759 16.5772 40.383 18.2101 43.0697C19.8429 45.7565 24.1773 46.3873 27.1461 46.4319C32.2376 46.5061 33.5661 54.0988 36.5646 46.135V46.1276Z" fill="#FDCA63"/>
<path d="M37.7966 43.8045C35.2583 47.0479 28.2668 41.1326 26.3742 37.1099C24.5262 33.1762 23.0715 29.532 19.7019 28.0922C14.744 25.9695 10.9143 27.773 8.92517 20.0096C9.9494 23.9878 15.8053 22.5554 20.6074 22.3179C25.3352 22.0804 29.343 27.2312 31.5102 31.1055C35.2286 37.7556 46.4655 32.7235 37.8041 43.7971L37.7966 43.8045Z" fill="#F7AE63"/>
<path d="M42.3166 38.0079C44.5878 36.9763 41.8862 31.3504 39.7041 29.3762C37.5666 27.439 34.8576 25.9918 34.4048 23.5499C33.7443 19.9503 36.0005 17.642 31.5622 14.8959C33.8333 16.3061 32.245 19.8167 31.5028 22.8745C30.7606 25.9324 33.3806 29.443 35.4439 31.5657C38.9916 35.2173 34.5607 41.5259 42.3092 38.0154L42.3166 38.0079Z" fill="#FDCA63"/>
<path d="M44.8253 37.2435C40.7357 37.7407 39.9787 28.6117 41.4779 24.4331C42.9475 20.3436 44.4987 16.7365 43.1405 13.3373C41.1365 8.32745 37.1509 6.90243 41.233 0C39.14 3.53286 44.2983 6.66493 47.8608 9.89349C51.3714 13.0701 50.5624 19.5495 49.3527 23.8171C47.2819 31.15 58.786 35.5364 44.8253 37.2435Z" fill="#F7AE63"/>
<path d="M52.121 36.338C54.459 37.2138 56.5297 31.3281 56.3812 28.3816C56.2328 25.5019 55.3422 22.5628 56.7523 20.5143C58.8305 17.501 62.0591 17.4639 60.8641 12.3873C61.4727 14.985 57.8656 16.3506 55.1789 17.9834C52.4921 19.6163 51.8613 23.9507 51.8167 26.9195C51.7425 32.011 44.1498 33.3395 52.1136 36.338H52.121Z" fill="#FDCA63"/>
<path d="M54.4367 37.57C51.1933 35.0317 57.1086 28.0402 61.1313 26.1476C65.065 24.2995 68.7092 22.8448 70.149 19.4753C72.2717 14.5174 70.4682 10.6876 78.2316 8.69855C74.2534 9.72278 75.6858 15.5787 75.9233 20.3807C76.1608 25.1085 71.01 29.1164 67.1357 31.2836C60.4856 35.002 65.5177 46.2389 54.4441 37.5774L54.4367 37.57Z" fill="#F7AE63"/>
<path d="M60.2407 42.09C61.2723 44.3611 66.8982 41.6595 68.8724 39.4775C70.8096 37.3399 72.2569 34.6309 74.6987 34.1782C78.2983 33.5176 80.6066 35.7739 83.3527 31.3356C81.9425 33.6067 78.4319 32.0184 75.3741 31.2762C72.3162 30.534 68.8056 33.154 66.683 35.2173C63.0313 38.765 56.7227 34.334 60.2333 42.0826L60.2407 42.09Z" fill="#FDCA63"/>
<path d="M61.0052 44.5986C60.5079 40.5091 69.6369 39.7521 73.8155 41.2513C77.905 42.7209 81.5121 44.2721 84.9113 42.9138C89.9212 40.9099 91.3462 36.9243 98.2486 41.0064C94.7158 38.9134 91.5837 44.0717 88.3551 47.6342C85.1785 51.1448 78.6991 50.3358 74.4315 49.126C67.0986 47.0553 62.7122 58.5594 61.0052 44.5986Z" fill="#F7AE63"/>
<path d="M61.9106 51.8944C61.0348 54.2323 66.9205 56.3031 69.867 56.1546C72.7467 56.0062 75.6858 55.1156 77.7343 56.5257C80.7476 58.6039 80.7847 61.8324 85.8613 60.6375C83.2637 61.2461 81.898 57.639 80.2652 54.9523C78.6323 52.2655 74.2979 51.6346 71.3291 51.5901C66.2377 51.5159 64.9091 43.9232 61.9106 51.887V51.8944Z" fill="#FDCA63"/>
<path d="M60.6786 54.2101C63.2169 50.9667 70.2084 56.882 72.101 60.9047C73.9491 64.8383 75.4038 68.4825 78.7734 69.9224C83.7313 72.0451 87.561 70.2415 89.5501 78.0049C88.5258 74.0268 82.6699 75.4592 77.8679 75.6967C73.1401 75.9342 69.1322 70.7834 66.965 66.9091C63.2466 60.259 52.0097 65.2911 60.6712 54.2175L60.6786 54.2101Z" fill="#F7AE63"/>
<path d="M56.1586 60.0141C53.8875 61.0457 56.5891 66.6716 58.7712 68.6458C60.9087 70.5829 63.6177 72.0302 64.0704 74.4721C64.731 78.0717 62.4747 80.3799 66.9131 83.1261C64.6419 81.7159 66.2302 78.2053 66.9724 75.1475C67.7146 72.0896 65.0947 68.579 63.0314 66.4563C59.4837 62.8047 63.9146 56.496 56.166 60.0066L56.1586 60.0141Z" fill="#FDCA63"/>
<path d="M49.2339 65.729C58.4691 65.729 65.9556 58.2424 65.9556 49.0073C65.9556 39.7721 58.4691 32.2856 49.2339 32.2856C39.9988 32.2856 32.5122 39.7721 32.5122 49.0073C32.5122 58.2424 39.9988 65.729 49.2339 65.729Z" fill="#FDCA63"/>
<path d="M44.7659 50.9518L40.2756 46.4912L46.5471 45.6451L49.3972 39.997L52.1433 45.6971L58.3926 46.6694L53.8207 51.0409L54.8301 57.2828L49.2636 54.2843L43.6377 57.1715L44.7659 50.9518Z" fill="white"/>
</g>
<defs>
<clipPath id="clip0_9_958">
<rect width="98.022" height="98.022" fill="white" transform="translate(0.226624)"/>
</clipPath>
</defs>
</svg>
